<svg viewBox="0 0 14 18" fill="none" xmlns="http://www.w3.org/2000/svg">
<path d="M7.82031 6.5H12.4297L7.82031 1.92969V6.5ZM10.3203 12.3203V10.6797H7.82031V8.17969H6.17969V10.6797H3.67969V12.3203H6.17969V14.8203H7.82031V12.3203H10.3203ZM8.67969 0.679688L13.6797 5.67969V15.6797C13.6797 16.1224 13.5104 16.513 13.1719 16.8516C12.8333 17.1641 12.4427 17.3203 12 17.3203H2C1.55729 17.3203 1.16667 17.1641 0.828125 16.8516C0.489583 16.513 0.320312 16.1224 0.320312 15.6797L0.359375 2.32031C0.359375 1.8776 0.515625 1.5 0.828125 1.1875C1.16667 0.848958 1.55729 0.679688 2 0.679688H8.67969Z" fill="black"/>
</svg>
