<svg xmlns="http://www.w3.org/2000/svg" fill="none" viewBox="1.7 1.69 16.61 16.61"  width="15" height="15">
<path d="M2.58493 17.4149C3.1666 17.9974 3.99827 18.3049 4.99077 18.3049C6.44243 18.3049 8.20327 17.6566 10.0008 16.5324C11.7974 17.6574 13.5591 18.3049 15.0108 18.3049C16.0024 18.3049 16.8341 17.9974 17.4166 17.4149C18.4741 16.3574 18.5924 14.5708 17.7508 12.3824C17.4524 11.6058 17.0391 10.8033 16.5366 9.99995C17.0164 9.24636 17.423 8.44855 17.7508 7.61745C18.5924 5.42911 18.4733 3.64161 17.4166 2.58495C16.8349 2.00245 16.0033 1.69495 15.0108 1.69495C13.5591 1.69495 11.7983 2.34328 10.0008 3.46745C8.2041 2.34245 6.44243 1.69495 4.99077 1.69495C3.9991 1.69495 3.16743 2.00245 2.58493 2.58495C1.52743 3.64245 1.40827 5.42911 2.24993 7.61745C2.5491 8.39411 2.9616 9.19661 3.4641 9.99995C2.98425 10.7535 2.57767 11.5513 2.24993 12.3824C1.40827 14.5708 1.52743 16.3574 2.58493 17.4149ZM16.1941 12.9808C16.7683 14.4724 16.7841 15.6899 16.2374 16.2366C15.9708 16.5033 15.5583 16.6383 15.0099 16.6383C14.0374 16.6383 12.8049 16.2191 11.5033 15.4883C12.9961 14.3344 14.3355 12.9947 15.4891 11.5016C15.7691 12.0024 16.0083 12.4983 16.1941 12.9808ZM9.99993 14.5141C9.12996 13.8921 8.31224 13.2001 7.55493 12.4449C6.79605 11.6871 6.09936 10.8695 5.4716 9.99995C6.72629 8.25964 8.2557 6.73501 9.99993 5.48578C10.8699 6.10778 11.6876 6.79981 12.4449 7.55495C13.2038 8.31277 13.9005 9.1304 14.5283 9.99995C13.2736 11.7403 11.7442 13.2649 9.99993 14.5141ZM15.0099 3.36161C15.5574 3.36161 15.9699 3.49661 16.2374 3.76328C16.7841 4.30995 16.7691 5.52745 16.1941 7.01911C16.0083 7.50161 15.7691 7.99745 15.4891 8.49828C14.3366 7.00425 12.9971 5.66441 11.5033 4.51161C12.8049 3.78161 14.0374 3.36161 15.0099 3.36161ZM3.80577 7.01911C3.2316 5.52745 3.21577 4.30995 3.76243 3.76328C4.0291 3.49661 4.4416 3.36161 4.98993 3.36161C5.96243 3.36161 7.19493 3.78078 8.4966 4.51161C7.00281 5.66441 5.66325 7.00425 4.51077 8.49828C4.24123 8.02244 4.00564 7.52816 3.80577 7.01911ZM3.80577 12.9808C3.9916 12.4983 4.23077 12.0024 4.51077 11.5016C5.66325 12.9956 7.00281 14.3355 8.4966 15.4883C7.1941 16.2191 5.96243 16.6383 4.98993 16.6383C4.44243 16.6383 4.02993 16.5033 3.76243 16.2366C3.21577 15.6899 3.2316 14.4724 3.80577 12.9808Z" fill="#FCC30B"/>
<path d="M9.99998 12.145C11.1846 12.145 12.145 11.1846 12.145 9.99998C12.145 8.81533 11.1846 7.85498 9.99998 7.85498C8.81533 7.85498 7.85498 8.81533 7.85498 9.99998C7.85498 11.1846 8.81533 12.145 9.99998 12.145Z" fill="#FCC30B"/>
</svg>