<svg width="25" height="21" viewBox="0 0 25 21" fill="none" xmlns="http://www.w3.org/2000/svg">
<path d="M2.02703 8.10811C0.905405 8.10811 0 9.01351 0 10.1351C0 11.2568 0.905405 12.1622 2.02703 12.1622C3.14865 12.1622 4.05405 11.2568 4.05405 10.1351C4.05405 9.01351 3.14865 8.10811 2.02703 8.10811ZM2.02703 0C0.905405 0 0 0.905406 0 2.02703C0 3.14865 0.905405 4.05405 2.02703 4.05405C3.14865 4.05405 4.05405 3.14865 4.05405 2.02703C4.05405 0.905406 3.14865 0 2.02703 0ZM2.02703 16.4392C1.03378 16.4392 0.222973 17.2432 0.222973 18.2432C0.222973 19.2432 1.03378 20.0473 2.02703 20.0473C3.02027 20.0473 3.83108 19.2432 3.83108 18.2432C3.83108 17.2432 3.02027 16.4392 2.02703 16.4392ZM6.08108 19.5946H25V16.8919H6.08108V19.5946ZM6.08108 11.4865H25V8.78378H6.08108V11.4865ZM6.08108 0.675676V3.37838H25V0.675676H6.08108Z" fill="white"/>
</svg>
