<svg width="27" height="23" viewBox="0 0 27 23" fill="none" xmlns="http://www.w3.org/2000/svg">
<g filter="url(#filter0_d_297_440)">
<path d="M10.2564 1.13138C10.4204 0.967269 10.643 0.87505 10.875 0.875H16.125C16.357 0.87505 16.5796 0.967269 16.7436 1.13138L18.2372 2.625H20.5C20.9641 2.625 21.4092 2.80937 21.7374 3.13756C22.0656 3.46575 22.25 3.91087 22.25 4.375V13.125C22.25 13.5891 22.0656 14.0342 21.7374 14.3624C21.4092 14.6906 20.9641 14.875 20.5 14.875H6.5C6.03587 14.875 5.59075 14.6906 5.26256 14.3624C4.93437 14.0342 4.75 13.5891 4.75 13.125V4.375C4.75 3.91087 4.93437 3.46575 5.26256 3.13756C5.59075 2.80937 6.03587 2.625 6.5 2.625H8.76275L10.2564 1.13138ZM11.2372 2.625L9.74362 4.11862C9.57957 4.28273 9.35705 4.37495 9.125 4.375H6.5V13.125H20.5V4.375H17.875C17.643 4.37495 17.4204 4.28273 17.2564 4.11862L15.7628 2.625H11.2372ZM13.5 6.5625C13.0359 6.5625 12.5908 6.74687 12.2626 7.07506C11.9344 7.40325 11.75 7.84837 11.75 8.3125C11.75 8.77663 11.9344 9.22175 12.2626 9.54994C12.5908 9.87813 13.0359 10.0625 13.5 10.0625C13.9641 10.0625 14.4092 9.87813 14.7374 9.54994C15.0656 9.22175 15.25 8.77663 15.25 8.3125C15.25 7.84837 15.0656 7.40325 14.7374 7.07506C14.4092 6.74687 13.9641 6.5625 13.5 6.5625ZM10 8.3125C10 7.38424 10.3687 6.494 11.0251 5.83763C11.6815 5.18125 12.5717 4.8125 13.5 4.8125C14.4283 4.8125 15.3185 5.18125 15.9749 5.83763C16.6313 6.494 17 7.38424 17 8.3125C17 9.24076 16.6313 10.131 15.9749 10.7874C15.3185 11.4438 14.4283 11.8125 13.5 11.8125C12.5717 11.8125 11.6815 11.4438 11.0251 10.7874C10.3687 10.131 10 9.24076 10 8.3125Z" fill="white"/>
</g>
<defs>
<filter id="filter0_d_297_440" x="0.75" y="0.875" width="25.5" height="22" filterUnits="userSpaceOnUse" color-interpolation-filters="sRGB">
<feFlood flood-opacity="0" result="BackgroundImageFix"/>
<feColorMatrix in="SourceAlpha" type="matrix" values="0 0 0 0 0 0 0 0 0 0 0 0 0 0 0 0 0 0 127 0" result="hardAlpha"/>
<feOffset dy="4"/>
<feGaussianBlur stdDeviation="2"/>
<feComposite in2="hardAlpha" operator="out"/>
<feColorMatrix type="matrix" values="0 0 0 0 0 0 0 0 0 0 0 0 0 0 0 0 0 0 0.25 0"/>
<feBlend mode="normal" in2="BackgroundImageFix" result="effect1_dropShadow_297_440"/>
<feBlend mode="normal" in="SourceGraphic" in2="effect1_dropShadow_297_440" result="shape"/>
</filter>
</defs>
</svg>
