<svg width="10" height="6" viewBox="0 0 10 6" fill="none" xmlns="http://www.w3.org/2000/svg">
<path d="M0.208953 0.217876C0.342786 0.0840831 0.524278 0.0089225 0.713518 0.0089225C0.902757 0.0089225 1.08425 0.0840831 1.21808 0.217876L4.99554 3.99533L8.77299 0.217876C8.83883 0.149713 8.91758 0.0953434 9.00465 0.0579406C9.09172 0.0205379 9.18537 0.000850389 9.28013 2.69451e-05C9.37489 -0.000796499 9.46886 0.0172611 9.55657 0.0531451C9.64428 0.089029 9.72396 0.142021 9.79097 0.20903C9.85798 0.276038 9.91097 0.355721 9.94686 0.443428C9.98274 0.531135 10.0008 0.625111 9.99997 0.719872C9.99915 0.814632 9.97946 0.90828 9.94206 0.995351C9.90466 1.08242 9.85029 1.16117 9.78212 1.227L5.5001 5.50903C5.36627 5.64282 5.18478 5.71798 4.99554 5.71798C4.8063 5.71798 4.62481 5.64282 4.49097 5.50903L0.208953 1.227C0.0751606 1.09317 0 0.91168 0 0.72244C0 0.5332 0.0751606 0.351708 0.208953 0.217876Z" fill="#7F7F7F"/>
</svg>
