<svg width="15" height="15" viewBox="0 0 15 15" fill="none" xmlns="http://www.w3.org/2000/svg">
<path d="M7.5 1.5C5.9087 1.5 4.38258 2.13214 3.25736 3.25736C2.13214 4.38258 1.5 5.9087 1.5 7.5C1.5 9.0913 2.13214 10.6174 3.25736 11.7426C4.38258 12.8679 5.9087 13.5 7.5 13.5C9.0913 13.5 10.6174 12.8679 11.7426 11.7426C12.8679 10.6174 13.5 9.0913 13.5 7.5C13.5 5.9087 12.8679 4.38258 11.7426 3.25736C10.6174 2.13214 9.0913 1.5 7.5 1.5ZM0 7.5C0 3.35775 3.35775 0 7.5 0C11.6422 0 15 3.35775 15 7.5C15 11.6422 11.6422 15 7.5 15C3.35775 15 0 11.6422 0 7.5ZM4.34475 4.34475C4.4854 4.20415 4.67613 4.12516 4.875 4.12516C5.07387 4.12516 5.2646 4.20415 5.40525 4.34475L7.5 6.4395L9.59475 4.34475C9.66394 4.27312 9.74669 4.21598 9.8382 4.17667C9.9297 4.13737 10.0281 4.11668 10.1277 4.11581C10.2273 4.11495 10.326 4.13392 10.4182 4.17163C10.5104 4.20934 10.5941 4.26503 10.6645 4.33545C10.735 4.40587 10.7907 4.48961 10.8284 4.58178C10.8661 4.67396 10.8851 4.77272 10.8842 4.8723C10.8833 4.97189 10.8626 5.0703 10.8233 5.1618C10.784 5.25331 10.7269 5.33606 10.6553 5.40525L8.5605 7.5L10.6553 9.59475C10.7919 9.7362 10.8675 9.92565 10.8658 10.1223C10.864 10.3189 10.7852 10.5071 10.6461 10.6461C10.5071 10.7852 10.3189 10.864 10.1223 10.8658C9.92565 10.8675 9.7362 10.7919 9.59475 10.6553L7.5 8.5605L5.40525 10.6553C5.2638 10.7919 5.07435 10.8675 4.8777 10.8658C4.68105 10.864 4.49294 10.7852 4.35389 10.6461C4.21483 10.5071 4.13595 10.3189 4.13424 10.1223C4.13254 9.92565 4.20813 9.7362 4.34475 9.59475L6.4395 7.5L4.34475 5.40525C4.20415 5.2646 4.12516 5.07387 4.12516 4.875C4.12516 4.67613 4.20415 4.4854 4.34475 4.34475Z" fill="#7F7F7F"/>
</svg>
