<svg xmlns="http://www.w3.org/2000/svg" fill="none" viewBox="0 0 15 8.25" width="25" height="15">
<path id="Vector" d="M4.125 8.25C1.845 8.25 0 6.40125 0 4.125C0 1.84875 1.845 0 4.125 0H12C13.6575 0 15 1.3425 15 3C15 4.6575 13.6575 6 12 6H5.625C4.59 6 3.75 5.16 3.75 4.125C3.75 3.09 4.59 2.25 5.625 2.25H11.25V3.375H5.625C5.2125 3.375 4.875 3.70875 4.875 4.125C4.875 4.54125 5.2125 4.875 5.625 4.875H12C13.035 4.875 13.875 4.035 13.875 3C13.875 1.965 13.035 1.125 12 1.125H4.125C2.4675 1.125 1.125 2.4675 1.125 4.125C1.125 5.7825 2.4675 7.125 4.125 7.125H11.25V8.25H4.125Z" fill="#7F7F7F"/>
</svg>