<svg width="15" height="15" viewBox="0 0 15 15" fill="none" xmlns="http://www.w3.org/2000/svg">
<path d="M14.8957 2.87488L11.4734 0.00372393L10.5164 1.14325L13.9387 4.0144L14.8957 2.87488ZM4.37934 1.13952L3.42229 0L0 2.87115L0.957051 4.01067L4.37934 1.13952ZM7.44414 1.59384C3.73883 1.59384 0.744787 4.59533 0.744787 8.29692C0.744787 11.9985 3.73883 15 7.44414 15C11.1495 15 14.1509 11.9985 14.1509 8.29692C14.1509 4.59533 11.1495 1.59384 7.44414 1.59384ZM7.44787 13.5104C4.56927 13.5104 2.23436 11.1755 2.23436 8.29692C2.23436 5.41832 4.56927 3.08342 7.44787 3.08342C10.3265 3.08342 12.6614 5.41832 12.6614 8.29692C12.6614 11.1755 10.3302 13.5104 7.44787 13.5104ZM6.35675 9.43272L4.77781 7.85377L3.98833 8.64325L6.35675 11.0117L10.8292 6.53923L10.0397 5.74975L6.35675 9.43272Z" fill="#145596"/>
</svg>
