<svg xmlns="http://www.w3.org/2000/svg" fill="none" viewBox="6 0 18.02 29" width="18.02" height="29">
<path d="M8.92578 29V23.2734H10.082V25.8164L12.418 23.2734H13.9727L11.8164 25.5039L14.0898 29H12.5938L11.0195 26.3125L10.082 27.2695V29H8.92578ZM14.6914 29V23.2734H16.5469C17.25 23.2734 17.7083 23.3021 17.9219 23.3594C18.25 23.4453 18.5247 23.6328 18.7461 23.9219C18.9674 24.2083 19.0781 24.5794 19.0781 25.0352C19.0781 25.3867 19.0143 25.6823 18.8867 25.9219C18.7591 26.1615 18.5964 26.3503 18.3984 26.4883C18.2031 26.6237 18.0039 26.7135 17.8008 26.7578C17.5247 26.8125 17.125 26.8398 16.6016 26.8398H15.8477V29H14.6914ZM15.8477 24.2422V25.8672H16.4805C16.9362 25.8672 17.2409 25.8372 17.3945 25.7773C17.5482 25.7174 17.668 25.6237 17.7539 25.4961C17.8424 25.3685 17.8867 25.2201 17.8867 25.0508C17.8867 24.8424 17.8255 24.6706 17.7031 24.5352C17.5807 24.3997 17.4258 24.3151 17.2383 24.2812C17.1003 24.2552 16.8229 24.2422 16.4062 24.2422H15.8477ZM19.9922 29V23.2734H21.1484V29H19.9922Z" fill="#145596"/>
<path d="M10.3963 19.9999H7.728C7.33732 19.9999 7.02087 19.6796 7.02087 19.2928V13.8311C7.02087 13.4405 7.34123 13.124 7.728 13.124H10.3963C10.787 13.124 11.1034 13.4444 11.1034 13.8311V19.2928C11.1073 19.6835 10.787 19.9999 10.3963 19.9999Z" fill="#145596"/>
<path d="M16.2212 20H13.8069C13.3498 20 12.9708 19.625 12.9708 19.164V11.284C12.9708 10.827 13.3459 10.448 13.8069 10.448H16.2212C16.6783 10.448 17.0573 10.823 17.0573 11.284V19.164C17.0573 19.625 16.6822 20 16.2212 20Z" fill="#145596"/>
<path d="M22.0658 19.9999H19.8663C19.3467 19.9999 18.9248 19.574 18.9248 19.0583V8.76404C18.9248 8.24444 19.3506 7.82251 19.8663 7.82251H22.0658C22.5854 7.82251 23.0074 8.24835 23.0074 8.76404V19.0583C23.0074 19.5779 22.5854 19.9999 22.0658 19.9999Z" fill="#145596"/>
<path d="M22.4017 0.00132664C21.5422 0.0364874 20.8742 0.763144 20.9093 1.62654L16.9401 5.52938L13.5568 2.56806L7.36463 8.7798C6.56765 8.88138 5.96992 9.56897 6.00117 10.3855C6.03633 11.245 6.7669 11.913 7.62638 11.8779C8.48587 11.8427 9.15392 11.1121 9.11876 10.2526C9.11485 10.1823 9.09923 10.1159 9.08751 10.0456L13.7483 5.57236L17.0182 8.43601L22.4369 3.11501C22.4681 3.11501 22.4994 3.12282 22.5306 3.11892C23.3901 3.08376 24.0582 2.35319 24.023 1.49371C23.9879 0.634221 23.2612 -0.0338341 22.4017 0.00132664Z" fill="#145596"/>
</svg>