<svg width="15" height="15" viewBox="0 0 15 15" fill="none" xmlns="http://www.w3.org/2000/svg">
<path d="M14.6208 1.85417L13.4667 0.454167C13.2333 0.179167 12.8875 0 12.5 0H2.5C2.1125 0 1.76667 0.179167 1.5375 0.454167L0.383333 1.85417C0.141667 2.14583 0 2.5125 0 2.91667V13.3333C0 14.2542 0.745833 15 1.66667 15H13.3333C14.2542 15 15 14.2542 15 13.3333V2.91667C15 2.5125 14.8583 2.14583 14.6208 1.85417ZM7.5 12.0833L2.91667 7.5H5.83333V5.83333H9.16667V7.5H12.0833L7.5 12.0833ZM1.77083 1.66667L2.45 0.833333H12.45L13.2292 1.66667H1.77083Z" fill="#7F7F7F"/>
</svg>
