<svg dataTestid="DownloadZipIcon" width="25" height="25" viewBox="0 0 25 25" fill="none" xmlns="http://www.w3.org/2000/svg">
<path d="M24.3681 3.09028L22.4444 0.756945C22.0556 0.298611 21.4792 0 20.8333 0H4.16667C3.52083 0 2.94444 0.298611 2.5625 0.756945L0.638889 3.09028C0.236111 3.57639 0 4.1875 0 4.86111V22.2222C0 23.7569 1.24306 25 2.77778 25H22.2222C23.7569 25 25 23.7569 25 22.2222V4.86111C25 4.1875 24.7639 3.57639 24.3681 3.09028ZM12.5 20.1389L4.86111 12.5H9.72222V9.72222H15.2778V12.5H20.1389L12.5 20.1389ZM2.95139 2.77778L4.08333 1.38889H20.75L22.0486 2.77778H2.95139Z" fill="white"/>
</svg>
