<svg width="15" height="15" viewBox="0 0 15 15" fill="none" xmlns="http://www.w3.org/2000/svg">
<path d="M10.4946 0.23115C10.6426 0.0831446 10.8434 0 11.0528 0C11.2621 0 11.4629 0.0831446 11.6109 0.23115L14.7689 3.38908C14.9169 3.53713 15 3.7379 15 3.94724C15 4.15659 14.9169 4.35736 14.7689 4.50541L4.50558 14.7687C4.35755 14.9167 4.15678 15 3.94741 15H0.789483C0.580099 15 0.379291 14.9168 0.231234 14.7688C0.0831774 14.6207 0 14.4199 0 14.2105V11.0526C4.47142e-05 10.8432 0.0832514 10.6424 0.231318 10.4944L8.12614 2.5996L10.4946 0.23115ZM8.68431 4.27409L1.57897 11.3794V13.421H3.62057L10.7259 6.31569L8.68431 4.27409ZM11.8422 5.19936L13.0944 3.94724L11.0528 1.90564L9.80064 3.15776L11.8422 5.19936Z" fill="#7F7F7F"/>
</svg>
