<svg width="25" height="22" viewBox="0 0 25 22" fill="none" xmlns="http://www.w3.org/2000/svg">
<g clip-path="url(#clip0_617_29)">
<path d="M12.4972 4.54443C15.6328 4.54443 18.1777 7.0893 18.1777 10.2249C18.1777 10.9578 18.03 11.6564 17.7743 12.2983L21.0975 15.6214C22.813 14.1899 24.165 12.3381 25 10.2249C23.0288 5.23745 18.1833 1.70416 12.4972 1.70416C10.9066 1.70416 9.38425 1.98818 7.96978 2.49943L10.4237 4.94774C11.0657 4.6978 11.7643 4.54443 12.4972 4.54443ZM1.13611 1.44853L3.72643 4.03886L4.24335 4.55578C2.36878 6.02136 0.886158 7.96978 0 10.2249C1.96546 15.2124 6.81663 18.7458 12.4972 18.7458C14.2581 18.7458 15.9396 18.4049 17.479 17.7858L17.9618 18.2686L21.2736 21.586L22.7221 20.1432L2.58464 0L1.13611 1.44853ZM7.41877 7.72552L9.17408 9.48083C9.12292 9.72508 9.08883 9.96933 9.08883 10.2249C9.08883 12.1052 10.6169 13.6333 12.4972 13.6333C12.7527 13.6333 12.9971 13.5992 13.2357 13.5481L14.9909 15.3033C14.2354 15.6783 13.3947 15.9055 12.4972 15.9055C9.3615 15.9055 6.81663 13.3606 6.81663 10.2249C6.81663 9.32742 7.04385 8.48667 7.41877 7.72552ZM12.3097 6.83368L15.8884 10.4124L15.9055 10.2249C15.9055 8.34467 14.3774 6.81663 12.4972 6.81663L12.3097 6.83368Z" fill="white"/>
</g>
<defs>
<clipPath id="clip0_617_29">
<rect width="25" height="21.6667" fill="white"/>
</clipPath>
</defs>
</svg>
