<svg width="25" height="18" viewBox="0 0 25 18" fill="none" xmlns="http://www.w3.org/2000/svg">
<path d="M12.5 0C6.81818 0 1.96591 3.53409 0 8.52273C1.96591 13.5114 6.81818 17.0455 12.5 17.0455C18.1875 17.0455 23.0341 13.5114 25 8.52273C23.0341 3.53409 18.1875 0 12.5 0ZM12.5 14.2045C9.36364 14.2045 6.81818 11.6591 6.81818 8.52273C6.81818 5.38636 9.36364 2.84091 12.5 2.84091C15.6364 2.84091 18.1818 5.38636 18.1818 8.52273C18.1818 11.6591 15.6364 14.2045 12.5 14.2045ZM12.5 5.11364C10.6193 5.11364 9.09091 6.64205 9.09091 8.52273C9.09091 10.4034 10.6193 11.9318 12.5 11.9318C14.3807 11.9318 15.9091 10.4034 15.9091 8.52273C15.9091 6.64205 14.3807 5.11364 12.5 5.11364Z" fill="white"/>
</svg>
