<svg dataTestid="KeyBlackIcon" width="15" height="9" viewBox="0 0 15 9" fill="none" xmlns="http://www.w3.org/2000/svg">
<path d="M7.94318 2.72727C7.38068 1.13864 5.87045 0 4.09091 0C1.83068 0 0 1.83068 0 4.09091C0 6.35114 1.83068 8.18182 4.09091 8.18182C5.87045 8.18182 7.38068 7.04318 7.94318 5.45455H10.9091V8.18182H13.6364V5.45455H15V2.72727H7.94318ZM4.09091 5.45455C3.3375 5.45455 2.72727 4.84432 2.72727 4.09091C2.72727 3.3375 3.3375 2.72727 4.09091 2.72727C4.84432 2.72727 5.45455 3.3375 5.45455 4.09091C5.45455 4.84432 4.84432 5.45455 4.09091 5.45455Z" fill="black"/>
</svg>
