<svg xmlns="http://www.w3.org/2000/svg" fill="none" viewBox="0 0 18.75 10" width="15" height="10">
<path id="Vector" d="M8.82102 3.33333C9.52415 1.39167 11.4119 0 13.6364 0C16.4616 0 18.75 2.2375 18.75 5C18.75 7.7625 16.4616 10 13.6364 10C11.4119 10 9.52415 8.60833 8.82102 6.66667H5.11364V10H1.70454V6.66667H0V3.33333H8.82102ZM13.6364 6.66667C14.5781 6.66667 15.3409 5.92083 15.3409 5C15.3409 4.07917 14.5781 3.33333 13.6364 3.33333C12.6946 3.33333 11.9318 4.07917 11.9318 5C11.9318 5.92083 12.6946 6.66667 13.6364 6.66667Z" fill="#025EA1"/>
</svg>