<svg width="15" height="14" viewBox="0 0 15 14" fill="none" xmlns="http://www.w3.org/2000/svg">
<path d="M0 13.6364H2.72727V5.45455H0V13.6364ZM15 6.13636C15 5.38295 14.3898 4.77273 13.6364 4.77273H9.33068L9.98182 1.65682C9.99545 1.58864 10.0057 1.51705 10.0057 1.44205C10.0057 1.15909 9.88977 0.903409 9.70568 0.719318L8.97955 0L4.48977 4.48977C4.24432 4.73864 4.09091 5.07955 4.09091 5.45455V12.2727C4.09091 13.0261 4.70114 13.6364 5.45455 13.6364H11.5909C12.1568 13.6364 12.6409 13.292 12.8455 12.8045L14.9011 7.99773C14.9625 7.84091 15 7.67386 15 7.5V6.19432L14.9932 6.1875L15 6.13636Z" fill="#145596"/>
</svg>
