<svg dataTestid="NumberFiveIcon" width="15" height="15" viewBox="0 0 15 15" fill="none" xmlns="http://www.w3.org/2000/svg">
<path d="M13.3333 0H1.66667C0.745834 0 0 0.745833 0 1.66667V13.3333C0 14.2542 0.745834 15 1.66667 15H13.3333C14.2542 15 15 14.2542 15 13.3333V1.66667C15 0.745833 14.2542 0 13.3333 0ZM13.3333 13.3333H1.66667V1.66667H13.3333V13.3333ZM10 10V8.33333C10 7.4125 9.25417 6.66667 8.33333 6.66667H6.66667V5H10V3.33333H5V8.33333H8.33333V10H5V11.6667H8.33333C9.25417 11.6667 10 10.9208 10 10Z" fill="black"/>
</svg>
