<svg dataTestid="PersonSquareIcon" width="15" height="15" viewBox="0 0 15 15" fill="none" xmlns="http://www.w3.org/2000/svg">
<path d="M0 1.66667V13.3333C0 14.2542 0.745833 15 1.66667 15H13.3333C14.2542 15 15 14.2542 15 13.3333V1.66667C15 0.745833 14.2542 0 13.3333 0H1.66667C0.745833 0 0 0.745833 0 1.66667ZM10 5C10 6.38333 8.87917 7.5 7.5 7.5C6.12083 7.5 5 6.38333 5 5C5 3.62083 6.12083 2.5 7.5 2.5C8.87917 2.5 10 3.62083 10 5ZM2.5 11.6667C2.5 10 5.83333 9.08333 7.5 9.08333C9.16667 9.08333 12.5 10 12.5 11.6667V12.5H2.5V11.6667Z" fill="black"/>
</svg>
