<svg dataTestid="PersonCircleIcon" width="15" height="15" viewBox="0 0 15 15" fill="none" xmlns="http://www.w3.org/2000/svg">
<path d="M7.5 0C3.35625 0 0 3.35625 0 7.5C0 11.6438 3.35625 15 7.5 15C11.6438 15 15 11.6438 15 7.5C15 3.35625 11.6438 0 7.5 0ZM7.5 2.25C8.74125 2.25 9.75 3.25875 9.75 4.5C9.75 5.745 8.74125 6.75 7.5 6.75C6.25875 6.75 5.25 5.745 5.25 4.5C5.25 3.25875 6.25875 2.25 7.5 2.25ZM7.5 12.9C5.62125 12.9 3.97125 11.94 3 10.485C3.01875 8.99625 6.00375 8.175 7.5 8.175C8.99625 8.175 11.9775 8.99625 12 10.485C11.0288 11.94 9.37875 12.9 7.5 12.9Z" fill="black"/>
</svg>
