<svg width="55" height="55" viewBox="0 0 55 55" fill="none" xmlns="http://www.w3.org/2000/svg">
<path d="M55 27.5C55 23.8886 54.2887 20.3127 52.9067 16.9762C51.5247 13.6398 49.499 10.6082 46.9454 8.05456C44.3918 5.50095 41.3602 3.47532 38.0238 2.09331C34.6873 0.711308 31.1114 -1.57857e-07 27.5 0L27.5 11C29.6668 11 31.8124 11.4268 33.8143 12.256C35.8161 13.0852 37.6351 14.3006 39.1673 15.8327C40.6994 17.3649 41.9148 19.1839 42.744 21.1857C43.5732 23.1876 44 25.3332 44 27.5H55Z" fill="#7EB7E6"/>
<path d="M27.5 55C34.7935 55 41.7882 52.1027 46.9454 46.9454C52.1027 41.7882 55 34.7935 55 27.5L44 27.5C44 31.8761 42.2616 36.0729 39.1673 39.1673C36.0729 42.2616 31.8761 44 27.5 44L27.5 55Z" fill="#56C02B"/>
<path d="M0 27.5C-6.37614e-07 34.7934 2.89731 41.7882 8.05456 46.9454C13.2118 52.1027 20.2065 55 27.5 55L27.5 44C23.1239 44 18.9271 42.2616 15.8327 39.1673C12.7384 36.0729 11 31.8761 11 27.5H0Z" fill="#FCC30B"/>
<path d="M27.5 0C20.2065 -8.69736e-08 13.2118 2.89731 8.05456 8.05456C2.89731 13.2118 6.37614e-07 20.2065 0 27.5H11C11 23.1239 12.7384 18.9271 15.8327 15.8327C18.9271 12.7384 23.1239 11 27.5 11V0Z" fill="#FF0000"/>
<path d="M29.5883 29.3302C29.2297 29.7165 28.7651 29.9884 28.2527 30.1119C27.7402 30.2355 27.2026 30.2052 26.7073 30.0248C26.212 29.8444 25.781 29.522 25.4682 29.0979C25.1554 28.6739 24.9748 28.167 24.949 27.6408C24.9232 27.1146 25.0534 26.5925 25.3231 26.1399C25.5929 25.6873 25.9904 25.3243 26.4657 25.0964C26.941 24.8685 27.473 24.7859 27.9951 24.8588C28.5172 24.9317 29.0062 25.1569 29.4008 25.5062C29.6679 25.7428 29.8851 26.0303 30.0395 26.3518C30.1939 26.6734 30.2824 27.0226 30.2999 27.3788C30.3173 27.735 30.2634 28.0912 30.1412 28.4263C30.019 28.7614 29.831 29.0687 29.5883 29.3302Z" fill="url(#paint0_radial_386_617)"/>
<path d="M28.31 18.3056C28.53 18.5185 28.7382 18.7432 28.9338 18.9786C29.5836 19.7561 30.1184 20.6228 30.5218 21.5522C31.1596 21.6736 31.8096 21.7186 32.4581 21.686H32.5729H32.6762C34.4419 21.5238 36.0899 20.7309 37.3179 19.4528L37.4786 19.2807C37.2376 18.9901 36.985 18.7033 36.7133 18.428C34.5233 16.2443 31.6202 14.9209 28.5344 14.6998C25.4486 14.4786 22.3862 15.3744 19.9067 17.2234C23.8673 15.3076 26.6072 16.6307 28.31 18.3056Z" fill="url(#paint1_linear_386_617)"/>
<path d="M19.195 31.3722C19.2716 31.0663 19.3672 30.7757 19.4667 30.4965C19.8129 29.5403 20.2949 28.6389 20.8979 27.8198C20.6833 27.2069 20.3969 26.6216 20.0445 26.076L19.9833 25.9804C19.9651 25.9508 19.9446 25.9227 19.9221 25.8963C18.903 24.4559 17.3995 23.4298 15.686 23.0054L15.4564 22.948C15.3263 23.3075 15.2038 23.6669 15.1005 24.0417C14.3049 27.0281 14.6105 30.2008 15.9614 32.9808C17.3123 35.7608 19.6185 37.9627 22.4591 39.1846C18.82 36.7182 18.5942 33.6858 19.195 31.3722Z" fill="url(#paint2_linear_386_617)"/>
<path d="M35.1099 32.7412C34.8154 32.8253 34.5165 32.8929 34.2145 32.9439C33.2171 33.1153 32.2003 33.1423 31.1952 33.0242C30.7702 33.5157 30.4053 34.0561 30.1085 34.6341L30.0587 34.7335L30.0128 34.8291C29.2748 36.4361 29.139 38.2546 29.6301 39.9532C29.6301 40.0259 29.6722 40.1024 29.6952 40.1789C30.0779 40.1138 30.4605 40.0374 30.8202 39.9379C33.801 39.1312 36.3925 37.281 38.1225 34.7247C39.8525 32.1683 40.6058 29.0759 40.2452 26.011C39.92 30.3933 37.4097 32.1064 35.1099 32.7412Z" fill="url(#paint3_linear_386_617)"/>
<path d="M19.9067 17.2236C18.0215 18.5402 16.5475 20.3631 15.6553 22.4815C16.9836 22.765 18.2134 23.3942 19.22 24.3055C20.2267 25.2167 20.9744 26.3777 21.3876 27.6707C21.7396 27.4451 22.8302 26.5847 23.5649 24.2291C24.4489 21.3611 26.1288 19.2579 28.3099 18.3287C28.3099 18.3058 25.5509 14.3709 19.9067 17.2236Z" fill="url(#paint4_linear_386_617)"/>
<path d="M28.7614 37.8614C28.7593 35.9403 29.479 34.0884 30.778 32.6722V32.6455C30.514 32.3625 29.5918 31.6703 27.2193 32.2095C24.2919 32.8787 21.0622 32.7984 19.1833 31.3721C19.1833 31.3721 17.1552 35.7276 22.4475 39.1845C24.5293 40.1581 26.844 40.5239 29.1249 40.2399C28.8737 39.4724 28.7509 38.6688 28.7614 37.8614Z" fill="url(#paint5_linear_386_617)"/>
<path d="M37.8191 19.7012C37.1064 20.5101 36.23 21.1585 35.2477 21.6035C34.2654 22.0485 33.1997 22.2799 32.1213 22.2824C31.5528 22.2797 30.9862 22.2195 30.4299 22.1026H30.3993C30.2921 22.485 30.2003 23.6322 31.8151 25.3683C33.8547 27.5671 35.4007 30.4007 35.1099 32.7448C35.1099 32.7448 39.897 32.3242 40.2452 26.0146C40.0489 23.7235 39.2078 21.5347 37.8191 19.7012Z" fill="url(#paint6_linear_386_617)"/>
<defs>
<radialGradient id="paint0_radial_386_617" cx="0" cy="0" r="1" gradientUnits="userSpaceOnUse" gradientTransform="translate(28.7277 24.5997) scale(3.76189 3.75928)">
<stop stop-color="#4495D1"/>
<stop offset="1" stop-color="#15256D"/>
</radialGradient>
<linearGradient id="paint1_linear_386_617" x1="23.9209" y1="15.5341" x2="35.2373" y2="20.0903" gradientUnits="userSpaceOnUse">
<stop stop-color="#4495D1"/>
<stop offset="1" stop-color="#15256D"/>
</linearGradient>
<linearGradient id="paint2_linear_386_617" x1="19.0026" y1="36.5578" x2="17.2932" y2="24.4877" gradientUnits="userSpaceOnUse">
<stop stop-color="#4495D1"/>
<stop offset="1" stop-color="#15256D"/>
</linearGradient>
<linearGradient id="paint3_linear_386_617" x1="39.7076" y1="30.323" x2="30.1085" y2="37.8457" gradientUnits="userSpaceOnUse">
<stop stop-color="#4495D1"/>
<stop offset="1" stop-color="#15256D"/>
</linearGradient>
<linearGradient id="paint4_linear_386_617" x1="19.3901" y1="24.187" x2="24.4745" y2="16.3867" gradientUnits="userSpaceOnUse">
<stop stop-color="#4495D1"/>
<stop offset="1" stop-color="#15256D"/>
</linearGradient>
<linearGradient id="paint5_linear_386_617" x1="29.014" y1="35.3146" x2="19.8914" y2="36.2451" gradientUnits="userSpaceOnUse">
<stop stop-color="#4495D1"/>
<stop offset="1" stop-color="#15256D"/>
</linearGradient>
<linearGradient id="paint6_linear_386_617" x1="34.8917" y1="22.1218" x2="36.749" y2="31.5063" gradientUnits="userSpaceOnUse">
<stop stop-color="#4495D1"/>
<stop offset="1" stop-color="#15256D"/>
</linearGradient>
</defs>
</svg>
