<svg xmlns="http://www.w3.org/2000/svg" fill="none" viewBox="0.83 3.33 18.33 12.68" width="15" height="15">
<g id="7720232_scientist_master_science_icon 1">
<path id="Vector" d="M9.99992 12.0333C9.8889 12.0343 9.77867 12.0145 9.67492 11.975L1.34159 8.44997C1.19096 8.38618 1.06244 8.27946 0.97205 8.14313C0.881657 8.0068 0.833385 7.84688 0.833252 7.68331C0.833385 7.51973 0.881657 7.35981 0.97205 7.22348C1.06244 7.08715 1.19096 6.98043 1.34159 6.91664L9.67492 3.39997C9.77774 3.35642 9.88826 3.33398 9.99992 3.33398C10.1116 3.33398 10.2221 3.35642 10.3249 3.39997L18.6582 6.91664C18.8089 6.98043 18.9374 7.08715 19.0278 7.22348C19.1182 7.35981 19.1665 7.51973 19.1666 7.68331C19.1665 7.84688 19.1182 8.0068 19.0278 8.14313C18.9374 8.27946 18.8089 8.38618 18.6582 8.44997L10.3249 11.975C10.2212 12.0145 10.1109 12.0343 9.99992 12.0333ZM3.80825 7.68331L9.99992 10.3L16.1916 7.68331L9.99992 5.07497L3.80825 7.68331Z" fill="#FCC30B"/>
<path id="Vector_2" d="M9.99992 16.0168C6.25825 16.0168 3.33325 14.2834 3.33325 12.0584V8.99178C3.33325 8.77077 3.42105 8.55881 3.57733 8.40253C3.73361 8.24624 3.94557 8.15845 4.16659 8.15845C4.3876 8.15845 4.59956 8.24624 4.75584 8.40253C4.91212 8.55881 4.99992 8.77077 4.99992 8.99178V12.0584C4.99992 13.1418 7.14159 14.3501 9.99992 14.3501C12.8583 14.3501 14.9999 13.1418 14.9999 12.0584V11.5168C14.9999 11.2958 15.0877 11.0838 15.244 10.9275C15.4003 10.7712 15.6122 10.6834 15.8333 10.6834C16.0543 10.6834 16.2662 10.7712 16.4225 10.9275C16.5788 11.0838 16.6666 11.2958 16.6666 11.5168V12.0584C16.6666 14.2834 13.7416 16.0168 9.99992 16.0168Z" fill="#FCC30B"/>
<path id="Vector_3" d="M18.3333 11.8501C18.1123 11.8501 17.9004 11.7623 17.7441 11.606C17.5878 11.4497 17.5 11.2378 17.5 11.0168V7.68343C17.5 7.46242 17.5878 7.25046 17.7441 7.09418C17.9004 6.9379 18.1123 6.8501 18.3333 6.8501C18.5543 6.8501 18.7663 6.9379 18.9226 7.09418C19.0789 7.25046 19.1667 7.46242 19.1667 7.68343V11.0168C19.1667 11.2378 19.0789 11.4497 18.9226 11.606C18.7663 11.7623 18.5543 11.8501 18.3333 11.8501Z" fill="#FCC30B"/>
</g>
</svg>