<svg xmlns="http://www.w3.org/2000/svg" fill="none" viewBox="0 0 20 20" width="15" height="15">
<g clip-path="url(#clip0_126_1024)">
<path d="M16.3778 11.0071C10.8193 9.93989 10.0601 9.18064 8.99347 3.62214C8.97701 3.53652 8.93123 3.4593 8.86401 3.40378C8.79678 3.34825 8.71232 3.31787 8.62512 3.31787C8.53793 3.31787 8.45346 3.34825 8.38624 3.40378C8.31902 3.4593 8.27324 3.53652 8.25678 3.62214C7.19018 9.18064 6.43091 9.93989 0.872134 11.0071C0.786532 11.0235 0.709319 11.0692 0.653786 11.1364C0.598252 11.2035 0.567871 11.288 0.567871 11.3751C0.567871 11.4623 0.598252 11.5467 0.653786 11.6139C0.709319 11.6811 0.786532 11.7268 0.872134 11.7432C6.43088 12.81 7.19018 13.5687 8.25678 19.1278C8.27332 19.2134 8.31913 19.2905 8.38634 19.346C8.45356 19.4014 8.53798 19.4318 8.62512 19.4318C8.71227 19.4318 8.79669 19.4014 8.86391 19.346C8.93112 19.2905 8.97693 19.2134 8.99347 19.1278C10.0601 13.5687 10.8193 12.8101 16.3778 11.7432C16.4634 11.7268 16.5406 11.6811 16.5962 11.6139C16.6517 11.5467 16.6821 11.4623 16.6821 11.3751C16.6821 11.288 16.6517 11.2035 16.5962 11.1364C16.5406 11.0692 16.4634 11.0235 16.3778 11.0071Z" fill="#FCC30B"/>
<path d="M15.9648 6.91432C15.8776 6.91428 15.7932 6.88388 15.726 6.82836C15.6588 6.77284 15.613 6.69566 15.5965 6.61006C15.2208 4.65144 15.0063 4.43693 13.0477 4.06123C12.962 4.04476 12.8848 3.99898 12.8293 3.93176C12.7738 3.86454 12.7434 3.78007 12.7434 3.69288C12.7434 3.6057 12.7738 3.52123 12.8293 3.45401C12.8848 3.38679 12.962 3.34101 13.0477 3.32454C15.0066 2.94856 15.2208 2.73402 15.5965 0.775706C15.6129 0.690083 15.6587 0.612869 15.7259 0.55734C15.7932 0.501811 15.8776 0.471436 15.9648 0.471436C16.052 0.471436 16.1365 0.501811 16.2037 0.55734C16.2709 0.612869 16.3167 0.690083 16.3332 0.775706C16.7088 2.73402 16.9231 2.94856 18.882 3.32454C18.9676 3.34101 19.0448 3.38679 19.1004 3.45401C19.1559 3.52123 19.1863 3.6057 19.1863 3.69288C19.1863 3.78007 19.1559 3.86454 19.1004 3.93176C19.0448 3.99898 18.9676 4.04476 18.882 4.06123C16.9234 4.4369 16.7088 4.65144 16.3332 6.61006C16.3167 6.69566 16.2709 6.77285 16.2037 6.82837C16.1365 6.88389 16.052 6.91428 15.9648 6.91432ZM14.6083 3.69288C14.925 3.7967 15.2127 3.97355 15.4484 4.20914C15.684 4.44474 15.8609 4.73247 15.9648 5.04908C16.0687 4.73247 16.2456 4.44474 16.4813 4.20914C16.7169 3.97355 17.0047 3.7967 17.3213 3.69288C17.0048 3.58897 16.717 3.41209 16.4814 3.1765C16.2458 2.94092 16.0688 2.65324 15.9648 2.33668C15.8608 2.65324 15.6839 2.94092 15.4483 3.1765C15.2126 3.41208 14.9249 3.58897 14.6083 3.69288Z" fill="#FCC30B"/>
</g>
<defs>
<clipPath id="clip0_126_1024">
<rect width="20" height="20" fill="white"/>
</clipPath>
</defs>
</svg>