<svg viewBox="0 0 24 25" fill="none" xmlns="http://www.w3.org/2000/svg">
<path d="M9 9.5H15V15.5H9M7 17.5H17V7.5H7M15 5.5H17V3.5H15M15 21.5H17V19.5H15M19 17.5H21V15.5H19M19 9.5H21V7.5H19M19 21.5C19.5304 21.5 20.0391 21.2893 20.4142 20.9142C20.7893 20.5391 21 20.0304 21 19.5H19M19 13.5H21V11.5H19M11 21.5H13V19.5H11M9 3.5H7V5.5H9M3 17.5H5V15.5H3M5 21.5V19.5H3C3 20.0304 3.21071 20.5391 3.58579 20.9142C3.96086 21.2893 4.46957 21.5 5 21.5ZM19 3.5V5.5H21C21 4.96957 20.7893 4.46086 20.4142 4.08579C20.0391 3.71071 19.5304 3.5 19 3.5ZM13 3.5H11V5.5H13M3 9.5H5V7.5H3M7 21.5H9V19.5H7M3 13.5H5V11.5H3M3 5.5H5V3.5C4.46957 3.5 3.96086 3.71071 3.58579 4.08579C3.21071 4.46086 3 4.96957 3 5.5Z" fill="black"/>
</svg>
