<svg width="25" height="25" viewBox="0 0 25 25" fill="none" xmlns="http://www.w3.org/2000/svg">
<path d="M13.75 0V3.79699C17.9875 4.40476 21.25 8.05138 21.25 12.4687C21.25 13.5902 21.0312 14.6617 20.65 15.6454L23.9 17.5689C24.5938 16.0088 25 14.292 25 12.4687C25 5.97118 20.0688 0.632832 13.75 0ZM12.5 21.2406C7.66875 21.2406 3.75 17.312 3.75 12.4687C3.75 8.05138 7.0125 4.40476 11.25 3.79699V0C4.925 0.626566 0 5.97118 0 12.4687C0 19.3922 5.5875 25 12.4937 25C16.6313 25 20.2875 22.9762 22.5625 19.8747L19.3188 17.9574C17.7188 19.9561 15.2625 21.2406 12.5 21.2406Z" fill="white"/>
</svg>
